<svg width="64" height="64" viewBox="0 0 64 64" fill="none" xmlns="http://www.w3.org/2000/svg">
<path d="M52 0H12C5.37258 0 0 5.37258 0 12V52C0 58.6274 5.37258 64 12 64H52C58.6274 64 64 58.6274 64 52V12C64 5.37258 58.6274 0 52 0Z" fill="#6366F1"/>
<path d="M16.6 12.5445L23.075 8.8062C23.5417 8.53677 24.125 8.8678 24.125 9.40666V36.55C24.125 38.93 26.6917 39.525 27.975 39.525H34.1C34.4866 39.525 34.8 39.8384 34.8 40.225V48.45C34.8 48.8366 34.488 49.1435 34.1026 49.1137C32.7389 49.0084 29.6438 48.651 24.125 47.75C18.0002 46.75 15.4187 43.2576 14.6866 41.109C14.5288 40.6458 14.5 40.1539 14.5 39.6645V16.1818C14.5 14.6813 15.3005 13.2948 16.6 12.5445Z" fill="white"/>
<path d="M47.4 51.4555L40.925 55.1938C40.4583 55.4632 39.875 55.1322 39.875 54.5933V27.45C39.875 25.07 37.3083 24.475 36.025 24.475H29.9C29.5134 24.475 29.2 24.1616 29.2 23.775V15.55C29.2 15.1634 29.512 14.8565 29.8974 14.8863C31.2611 14.9916 34.3562 15.349 39.875 16.25C45.9998 17.25 48.5813 20.7424 49.3134 22.891C49.4712 23.3542 49.5 23.8461 49.5 24.3355V47.8182C49.5 49.3187 48.6995 50.7052 47.4 51.4555Z" fill="white"/>
</svg>
